HIERARCHY
ROOT joint_Root
{
  OFFSET 0 0 0
  CHANNELS 6 Xposition Yposition Zposition Zrotation Xrotation Yrotation
  JOINT Hips
  {
    OFFSET 0.847027 93.984 -452.225
    CHANNELS 6 Xposition Yposition Zposition Zrotation Xrotation Yrotation
    JOINT Spine
    {
      OFFSET 15.7357 0 0
      CHANNELS 6 Xposition Yposition Zposition Zrotation Xrotation Yrotation
      JOINT Chest
      {
        OFFSET 8.98455 -0.406207 0
        CHANNELS 6 Xposition Yposition Zposition Zrotation Xrotation Yrotation
        JOINT Neck
        {
          OFFSET 16.3773 0 0
          CHANNELS 6 Xposition Yposition Zposition Zrotation Xrotation Yrotation
          JOINT Head
          {
            OFFSET 6.45672 0 0
            CHANNELS 6 Xposition Yposition Zposition Zrotation Xrotation Yrotation
            End Site
            {
              OFFSET 0 0 0
            }
          }
        }
        JOINT Shoulder_L
        {
          OFFSET 12.9942 -0.242716 4.98039
          CHANNELS 6 Xposition Yposition Zposition Zrotation Xrotation Yrotation
          JOINT UpperArm_L
          {
            OFFSET 5.34809 0 0
            CHANNELS 6 Xposition Yposition Zposition Zrotation Xrotation Yrotation
            JOINT LowerArm_L
            {
              OFFSET 24.3286 1.87007e-05 0
              CHANNELS 6 Xposition Yposition Zposition Zrotation Xrotation Yrotation
              JOINT Hand_L
              {
                OFFSET 22.2916 0 0
                CHANNELS 6 Xposition Yposition Zposition Zrotation Xrotation Yrotation
                End Site
                {
                  OFFSET 0 0 0
                }
              }
            }
          }
        }
        JOINT Shoulder_R
        {
          OFFSET 12.9945 -0.242716 -4.98039
          CHANNELS 6 Xposition Yposition Zposition Zrotation Xrotation Yrotation
          JOINT UpperArm_R
          {
            OFFSET -5.34813 0 0
            CHANNELS 6 Xposition Yposition Zposition Zrotation Xrotation Yrotation
            JOINT LowerArm_R
            {
              OFFSET -24.3289 0.000322201 0
              CHANNELS 6 Xposition Yposition Zposition Zrotation Xrotation Yrotation
              JOINT Hand_R
              {
                OFFSET -22.2915 -0.000108084 0
                CHANNELS 6 Xposition Yposition Zposition Zrotation Xrotation Yrotation
                End Site
                {
                  OFFSET 0 0 0
                }
              }
            }
          }
        }
      }
    }
    JOINT UpperLeg_L
    {
      OFFSET -2.19248 -6.46944 0
      CHANNELS 6 Xposition Yposition Zposition Zrotation Xrotation Yrotation
      JOINT LowerLeg_L
      {
        OFFSET 39.0811 0 -1.23785e-05
        CHANNELS 6 Xposition Yposition Zposition Zrotation Xrotation Yrotation
        JOINT Foot_L
        {
          OFFSET 40.9854 0 -1.26872e-05
          CHANNELS 6 Xposition Yposition Zposition Zrotation Xrotation Yrotation
          JOINT Toes_L
          {
            OFFSET 11.7543 0 0
            CHANNELS 6 Xposition Yposition Zposition Zrotation Xrotation Yrotation
            End Site
            {
              OFFSET 0 0 0
            }
          }
        }
      }
    }
    JOINT UpperLeg_R
    {
      OFFSET -2.19251 6.46944 0
      CHANNELS 6 Xposition Yposition Zposition Zrotation Xrotation Yrotation
      JOINT LowerLeg_R
      {
        OFFSET -39.0811 -0.00228153 -0.0401928
        CHANNELS 6 Xposition Yposition Zposition Zrotation Xrotation Yrotation
        JOINT Foot_R
        {
          OFFSET -40.9854 0 0
          CHANNELS 6 Xposition Yposition Zposition Zrotation Xrotation Yrotation
          JOINT Toes_R
          {
            OFFSET -11.7543 0 0
            CHANNELS 6 Xposition Yposition Zposition Zrotation Xrotation Yrotation
            End Site
            {
              OFFSET 0 0 0
            }
          }
        }
      }
    }
  }
}
MOTION
Frames:	8
Frame Time:	0.0333333
0 0 0 0 0 -0 1.66209 88.5283 -375.963 89.6645 -13.209 13.6352 15.7357 5.1072e-06 -5.51765e-07 91.8197 85.6021 -95.2131 8.98455 -0.406207 -4.3199e-07 1.0487 0.477841 -6.78574 16.3773 -1.3905e-06 -6.99897e-07 13.8561 2.39814 -6.77783 6.45672 -1.25837e-06 -1.02172e-07 9.82977 0.996215 -11.6529 12.9942 -0.242716 4.98039 -92.8237 6.59015 -81.744 5.34809 -7.22636e-06 -6.2814e-07 -61.1487 11.0931 2.91971 24.3286 1.87007e-05 4.90208e-06 -0.302382 -1.93657 -8.86455 22.2916 -9.88446e-07 4.63217e-06 14.7695 5.45343 -4.75259 12.9945 -0.242716 -4.98039 88.0438 9.52908 -93.3427 -5.34813 -1.25947e-06 -3.79883e-06 -63.4288 7.23105 8.71549 -24.3289 0.000322201 -8.65921e-06 3.39387 1.24927 -69.8331 -22.2915 -0.000108084 -4.47941e-06 12.7235 5.45484 -4.81677 -2.19248 -6.46944 -1.22533e-07 -173.247 -8.99297 2.23317 39.0811 -6.73843e-06 -1.23785e-05 0.0238885 0.0127948 39.2936 40.9854 -6.48686e-06 -1.26872e-05 -2.48986 -4.43845 -77.1588 11.7543 -2.30145e-07 3.05095e-06 0.0276809 -0.0432885 -17.3496 -2.19251 6.46944 -1.45247e-06 167.438 8.67313 170.023 -39.0811 -0.00228153 -0.0401928 0.586796 -0.179747 72.2566 -40.9854 7.72618e-06 5.99936e-06 -3.25127 -5.80757 -42.0646 -11.7543 -5.6619e-06 -5.58687e-06 0.453718 -0.553553 -21.8379 
0 0 0 0 0 -0 1.65925 89.0293 -373.03 88.6299 -10.5614 13.2314 15.7357 5.1072e-06 -5.51764e-07 84.3905 85.2403 -87.3702 8.98455 -0.406207 -4.3199e-07 1.69478 -0.772287 -5.94254 16.3773 -1.3905e-06 -6.99897e-07 13.9584 1.48105 -6.45456 6.45672 -1.25837e-06 -1.02172e-07 9.44772 0.601434 -10.94 12.9942 -0.242716 4.98039 -92.5603 6.12253 -82.255 5.34809 -7.22636e-06 -6.2814e-07 -57.7236 12.7267 -3.32951 24.3286 1.87007e-05 4.90208e-06 -0.719669 -3.14486 -12.8917 22.2916 -9.88446e-07 4.63217e-06 16.8389 5.4797 -5.72895 12.9945 -0.242716 -4.98039 87.9065 9.40802 -92.3947 -5.34813 -1.25947e-06 -3.79883e-06 -65.6796 8.96019 13.455 -24.3289 0.000322201 -8.65921e-06 3.05896 1.51971 -63.6042 -22.2915 -0.000108084 -4.47941e-06 10.9741 5.47407 -5.53162 -2.19248 -6.46944 -1.22533e-07 -172.458 -7.63143 5.45797 39.0811 -6.73843e-06 -1.23785e-05 0.00961588 0.0315867 35.8449 40.9854 -6.48686e-06 -1.26872e-05 -2.18591 -3.15266 -77.354 11.7543 -2.30145e-07 3.05095e-06 0.0193921 -0.0301711 -17.1164 -2.19251 6.46944 -1.45247e-06 169.434 12.555 165.793 -39.0811 -0.00228153 -0.0401928 0.558913 -0.187827 70.8291 -40.9854 7.72618e-06 5.99936e-06 -6.00752 -4.66125 -43.6901 -11.7543 -5.6619e-06 -5.58687e-06 0.440372 -0.535735 -21.6742 
0 0 0 0 0 -0 1.60436 89.3912 -370.241 87.7254 -8.01284 12.5556 15.7357 5.1072e-06 -5.51765e-07 79.3864 84.9425 -81.9006 8.98455 -0.406207 -4.3199e-07 2.14381 -1.73846 -4.99114 16.3773 -1.3905e-06 -6.99897e-07 14.3204 0.331237 -5.93711 6.45672 -1.25837e-06 -1.02172e-07 9.48387 0.0646156 -9.93586 12.9942 -0.242716 4.98039 -92.2462 5.53592 -82.8738 5.34809 -7.22636e-06 -6.2814e-07 -54.7624 12.335 -9.28485 24.3286 1.87007e-05 4.90207e-06 -1.42884 -4.56342 -17.3933 22.2916 -9.88446e-07 4.63217e-06 17.7933 5.49963 -6.51776 12.9945 -0.242716 -4.98039 87.7624 9.49222 -91.6707 -5.34813 -1.25947e-06 -3.79883e-06 -67.6034 10.7848 16.9645 -24.3289 0.000322201 -8.65921e-06 2.86395 2.07522 -54.1294 -22.2915 -0.000108084 -4.47941e-06 7.86624 5.44535 -4.42537 -2.19248 -6.46944 -1.22534e-07 -171.87 -6.06686 8.16253 39.0811 -6.73843e-06 -1.23785e-05 0.0236477 0.00808954 32.4522 40.9854 -6.48686e-06 -1.26872e-05 -1.64978 -2.31288 -77.4703 11.7543 -2.30145e-07 3.05095e-06 0.0199673 -0.0310854 -17.1325 -2.19251 6.46944 -1.45247e-06 172.125 16.1686 162.087 -39.0811 -0.00228153 -0.0401928 0.442022 -0.188329 66.2176 -40.9854 7.72618e-06 5.99936e-06 -5.95041 -4.02508 -47.2825 -11.7543 -5.6619e-06 -5.58687e-06 0.428351 -0.519736 -21.5271 
0 0 0 0 0 -0 1.54784 89.5782 -367.423 87.0424 -5.37343 11.9201 15.7357 5.1072e-06 -5.51764e-07 74.6792 84.6525 -76.7456 8.98455 -0.406207 -4.3199e-07 2.50572 -2.72876 -4.06938 16.3773 -1.3905e-06 -6.99897e-07 15.0543 -0.581869 -5.61639 6.45672 -1.25837e-06 -1.02172e-07 9.64117 -0.524511 -8.93672 12.9942 -0.242716 4.98039 -91.9776 5.0468 -83.5707 5.34809 -7.22636e-06 -6.2814e-07 -51.9919 11.4146 -14.3761 24.3286 1.87007e-05 4.90208e-06 -3.21798 -7.84924 -22.3595 22.2916 -9.88446e-07 4.63217e-06 17.646 5.51291 -7.06232 12.9945 -0.242716 -4.98039 87.4726 10.4288 -91.2966 -5.34813 -1.25947e-06 -3.79883e-06 -68.7388 12.6214 19.921 -24.3289 0.000322201 -8.65921e-06 4.99432 5.18473 -44.0987 -22.2915 -0.000108084 -4.47941e-06 3.05945 5.36433 -1.78277 -2.19248 -6.46944 -1.22533e-07 -171.907 -3.39399 10.5551 39.0811 -6.73843e-06 -1.23785e-05 0.0300775 -0.00841585 29.3804 40.9854 -6.48686e-06 -1.26872e-05 -1.63996 -2.68426 -77.4608 11.7543 -2.30145e-07 3.05095e-06 0.0230004 -0.0358676 -17.2177 -2.19251 6.46944 -1.45247e-06 174.654 19.2697 159.849 -39.0811 -0.00228153 -0.0401928 0.30481 -0.184263 57.8376 -40.9854 7.72618e-06 5.99936e-06 -6.32595 -4.12805 -50.221 -11.7543 -5.6619e-06 -5.58687e-06 0.418091 -0.506165 -21.4021 
0 0 0 0 0 -0 1.36147 89.411 -364.683 86.64 -3.2618 10.851 15.7357 5.1072e-06 -5.51765e-07 71.8596 84.4873 -73.5116 8.98455 -0.406207 -4.3199e-07 2.66916 -3.3562 -3.22309 16.3773 -1.3905e-06 -6.99897e-07 15.7204 -1.33938 -5.35494 6.45672 -1.25837e-06 -1.02172e-07 9.6745 -0.994163 -8.26975 12.9942 -0.242716 4.98039 -91.65 4.34675 -84.1914 5.34809 -7.22636e-06 -6.2814e-07 -49.4072 10.5211 -19.1025 24.3286 1.87007e-05 4.90208e-06 -5.54723 -10.9169 -27.1413 22.2916 -9.88446e-07 4.63217e-06 17.6727 5.52532 -7.58937 12.9945 -0.242716 -4.98039 87.0946 11.5738 -90.8042 -5.34813 -1.25947e-06 -3.79883e-06 -69.8702 14.8267 21.653 -24.3289 0.000322201 -8.65921e-06 7.83317 11.9428 -33.6683 -22.2915 -0.000108084 -4.47941e-06 -0.353006 5.36327 -1.79184 -2.19248 -6.46944 -1.22533e-07 -171.42 -2.26553 11.7281 39.0811 -6.73843e-06 -1.23785e-05 0.0236382 0.00211633 27.9122 40.9854 -6.48686e-06 -1.26872e-05 -1.70808 -1.76783 -77.7073 11.7543 -2.30145e-07 3.05095e-06 0.0383247 -0.0602759 -17.6507 -2.19251 6.46944 -1.45247e-06 177.294 21.0724 158.354 -39.0811 -0.00228153 -0.0401928 0.166029 -0.149803 45.9394 -40.9854 7.72618e-06 5.99936e-06 -6.53128 -4.36453 -50.8451 -11.7543 -5.6619e-06 -5.58687e-06 0.412987 -0.499421 -21.3399 
0 0 0 0 0 -0 1.08193 89.0121 -361.794 86.8494 -1.10912 9.88207 15.7357 5.1072e-06 -5.51765e-07 68.4408 84.3092 -69.889 8.98455 -0.406207 -4.3199e-07 2.7755 -4.11543 -2.79449 16.3773 -1.3905e-06 -6.99897e-07 16.2015 -1.80859 -5.0305 6.45672 -1.25837e-06 -1.02172e-07 9.81912 -1.41061 -7.94064 12.9942 -0.242716 4.98039 -91.3021 3.48638 -84.5065 5.34809 -7.22636e-06 -6.2814e-07 -46.8616 9.90111 -22.9964 24.3286 1.87007e-05 4.90208e-06 -7.64919 -12.6031 -31.6118 22.2916 -9.88446e-07 4.63217e-06 19.1729 5.55117 -8.74115 12.9945 -0.242716 -4.98039 86.7615 12.441 -90.2845 -5.34813 -1.25947e-06 -3.79883e-06 -71.0964 14.9799 22.6428 -24.3289 0.000322201 -8.65921e-06 8.5993 20.1235 -23.7552 -22.2915 -0.000108084 -4.47941e-06 -2.49495 5.38043 -2.30791 -2.19248 -6.46944 -1.22533e-07 -171.153 -1.51646 12.2492 39.0811 -6.73843e-06 -1.23785e-05 0.0101161 0.0311057 27.8353 40.9854 -6.48686e-06 -1.26872e-05 -1.87268 -0.2128 -77.5406 11.7543 -2.30145e-07 3.05095e-06 -0.33891 -0.585781 -19.1208 -2.19251 6.46944 -1.45247e-06 179.176 22.4865 158.347 -39.0811 -0.00228153 -0.0401928 0.0615161 -0.0852131 31.0673 -40.9854 7.72618e-06 5.99936e-06 -5.89842 -3.73106 -48.5811 -11.7543 -5.6619e-06 -5.58687e-06 0.410103 -0.495625 -21.3049 
0 0 0 0 0 -0 0.603369 88.4883 -358.461 87.3756 1.41793 9.3714 15.7357 5.1072e-06 -5.51764e-07 64.699 84.0527 -66.0337 8.98455 -0.406207 -4.3199e-07 2.94059 -5.02221 -2.53871 16.3773 -1.3905e-06 -6.99897e-07 16.6986 -2.49197 -4.89125 6.45672 -1.25837e-06 -1.02172e-07 9.80534 -1.6084 -7.51921 12.9942 -0.242716 4.98039 -91.0164 2.7813 -84.9191 5.34809 -7.22636e-06 -6.2814e-07 -44.6371 9.16442 -25.528 24.3286 1.87007e-05 4.90208e-06 -8.73688 -12.4117 -35.5669 22.2916 -9.88446e-07 4.63217e-06 21.4044 5.57832 -10.1052 12.9945 -0.242716 -4.98039 86.5998 12.4953 -89.6441 -5.34813 -1.25947e-06 -3.79883e-06 -71.4641 9.80449 23.5578 -24.3289 0.000322201 -8.65921e-06 7.683 28.4728 -15.8139 -22.2915 -0.000108084 -4.47941e-06 -2.47273 5.30694 -0.145937 -2.19248 -6.46944 -1.22533e-07 -170.866 -0.458606 12.7907 39.0811 -6.73843e-06 -1.23785e-05 -0.0222482 0.0948914 28.6641 40.9854 -6.48686e-06 -1.26872e-05 -2.33701 1.7097 -76.2865 11.7543 -2.30145e-07 3.05095e-06 -1.0432 -1.49656 -22.19 -2.19251 6.46944 -1.45247e-06 -179.948 24.0686 159.473 -39.0811 -0.00228153 -0.0401928 0.000363435 0.0257878 17.1593 -40.9854 7.72618e-06 5.99936e-06 -8.77379 -2.56596 -45.0558 -11.7543 -5.6619e-06 -5.58687e-06 0.371044 -0.444681 -20.8331 
0 0 0 0 0 -0 -0.136523 87.8695 -354.438 87.9667 4.08357 9.3768 15.7357 5.1072e-06 -5.51765e-07 61.9088 83.7035 -63.1833 8.98455 -0.406207 -4.3199e-07 3.29442 -5.87324 -2.37867 16.3773 -1.3905e-06 -6.99897e-07 17.2181 -3.14292 -4.3795 6.45672 -1.25837e-06 -1.02172e-07 9.50197 -2.00769 -7.43984 12.9942 -0.242716 4.98039 -90.8344 2.32859 -85.2811 5.34809 -7.22636e-06 -6.2814e-07 -42.6757 8.55918 -27.3125 24.3286 1.87007e-05 4.90207e-06 -9.46928 -12.0327 -38.6657 22.2916 -9.88446e-07 4.63217e-06 23.4049 5.60045 -11.361 12.9945 -0.242716 -4.98039 86.609 11.9835 -89.0723 -5.34813 -1.25947e-06 -3.79883e-06 -70.7098 0.977437 24.9288 -24.3289 0.000322201 -8.65921e-06 5.34126 32.2211 -9.94731 -22.2915 -0.000108084 -4.47941e-06 0.468978 5.15671 3.7429 -2.19248 -6.46944 -1.22533e-07 -170.041 0.390772 13.7114 39.0811 -6.73843e-06 -1.23785e-05 -0.0488966 0.140967 30.3667 40.9854 -6.48686e-06 -1.26872e-05 -2.83428 4.30769 -74.7691 11.7543 -2.30145e-07 3.05095e-06 -0.175384 -0.792832 -24.0993 -2.19251 6.46944 -1.45247e-06 -179.453 27.4959 159.81 -39.0811 -0.00228153 -0.0401928 -0.0258659 0.149496 12.5357 -40.9854 7.72618e-06 5.99936e-06 -12.4582 -2.32656 -48.0144 -11.7543 -5.6619e-06 -5.58687e-06 0.406183 -0.490474 -21.2574 
